<svg xmlns="http://www.w3.org/2000/svg" width="1600" height="1000" viewBox="0 0 1600 1000" role="img" aria-labelledby="title desc">
  <title id="title">CC-DevFlow PR Harness workflow</title>
  <desc id="desc">A visual workflow diagram showing roadmap selection, goal-driven development, PDCA and hotfix diagnose paths, PR review, and PR landing with main parity.</desc>
  <defs>
    <linearGradient id="bg" x1="0" y1="0" x2="1" y2="1">
      <stop offset="0" stop-color="#07111f"/>
      <stop offset="0.48" stop-color="#0d2638"/>
      <stop offset="1" stop-color="#102414"/>
    </linearGradient>
    <linearGradient id="blue" x1="0" y1="0" x2="1" y2="1">
      <stop offset="0" stop-color="#4cc9f0"/>
      <stop offset="1" stop-color="#4361ee"/>
    </linearGradient>
    <linearGradient id="green" x1="0" y1="0" x2="1" y2="1">
      <stop offset="0" stop-color="#b8f05a"/>
      <stop offset="1" stop-color="#2fbf71"/>
    </linearGradient>
    <linearGradient id="amber" x1="0" y1="0" x2="1" y2="1">
      <stop offset="0" stop-color="#ffd166"/>
      <stop offset="1" stop-color="#ef8354"/>
    </linearGradient>
    <linearGradient id="violet" x1="0" y1="0" x2="1" y2="1">
      <stop offset="0" stop-color="#d0a2ff"/>
      <stop offset="1" stop-color="#7b2cbf"/>
    </linearGradient>
    <filter id="shadow" x="-20%" y="-20%" width="140%" height="140%">
      <feDropShadow dx="0" dy="16" stdDeviation="16" flood-color="#000000" flood-opacity="0.35"/>
    </filter>
    <marker id="arrow" markerWidth="16" markerHeight="16" refX="12" refY="8" orient="auto" markerUnits="strokeWidth">
      <path d="M2,2 L14,8 L2,14 Z" fill="#d7e3f4"/>
    </marker>
    <style>
      .title{font:800 62px Inter,Arial,sans-serif;fill:#f8fbff;letter-spacing:0}
      .subtitle{font:500 26px Inter,Arial,sans-serif;fill:#bdd0e8}
      .label{font:800 26px Inter,Arial,sans-serif;fill:#f8fbff;letter-spacing:0}
      .small{font:500 18px Inter,Arial,sans-serif;fill:#d7e3f4}
      .micro{font:700 15px Inter,Arial,sans-serif;fill:#0a1421;letter-spacing:.5px}
      .note{font:600 18px Inter,Arial,sans-serif;fill:#f8fbff}
      .muted{font:500 16px Inter,Arial,sans-serif;fill:#9fb4cd}
      .card{fill:#102033;stroke:#27445f;stroke-width:2;filter:url(#shadow)}
      .lane{fill:#0b1728;stroke:#27445f;stroke-width:2}
      .line{fill:none;stroke:#d7e3f4;stroke-width:4;marker-end:url(#arrow)}
      .thin{fill:none;stroke:#6c819b;stroke-width:3;stroke-dasharray:8 10;marker-end:url(#arrow)}
    </style>
  </defs>
  <rect width="1600" height="1000" fill="url(#bg)"/>
  <circle cx="140" cy="125" r="220" fill="#2247ff" opacity="0.12"/>
  <circle cx="1450" cy="820" r="260" fill="#2fbf71" opacity="0.13"/>

  <text x="80" y="96" class="title">CC-DevFlow PR Harness</text>
  <text x="84" y="136" class="subtitle">Roadmap-aware goal autopilot: pick next work, drive to PR, review separately, land with main parity.</text>

  <rect x="80" y="190" width="1440" height="150" rx="18" class="lane"/>
  <text x="110" y="225" class="note">Navigation layer</text>
  <g transform="translate(130 250)">
    <rect width="260" height="70" rx="16" fill="url(#blue)"/>
    <text x="24" y="32" class="label">cc-roadmap</text>
    <text x="24" y="56" class="small">product order and staged truth</text>
  </g>
  <g transform="translate(520 250)">
    <rect width="260" height="70" rx="16" fill="url(#green)"/>
    <text x="24" y="32" class="label">cc-next</text>
    <text x="24" y="56" class="small">choose one ready Goal Packet</text>
  </g>
  <g transform="translate(910 250)">
    <rect width="300" height="70" rx="16" fill="url(#amber)"/>
    <text x="24" y="32" class="label">cc-dev</text>
    <text x="24" y="56" class="small">current worktree to remote PR</text>
  </g>
  <path class="line" d="M390 285 H510"/>
  <path class="line" d="M780 285 H900"/>

  <rect x="80" y="390" width="675" height="335" rx="18" class="lane"/>
  <text x="110" y="426" class="note">PDCA feature loop</text>
  <text x="110" y="455" class="muted">For new behavior, API/UI changes, and requirement work</text>
  <g transform="translate(120 490)">
    <rect width="230" height="72" rx="14" class="card"/>
    <text x="24" y="32" class="label">cc-plan</text>
    <text x="24" y="57" class="small">scope, design, tasks</text>
  </g>
  <g transform="translate(455 490)">
    <rect width="230" height="72" rx="14" class="card"/>
    <text x="24" y="32" class="label">cc-do</text>
    <text x="24" y="57" class="small">red, green, refactor</text>
  </g>
  <g transform="translate(120 615)">
    <rect width="230" height="72" rx="14" class="card"/>
    <text x="24" y="32" class="label">cc-check</text>
    <text x="24" y="57" class="small">fresh evidence verdict</text>
  </g>
  <g transform="translate(455 615)">
    <rect width="230" height="72" rx="14" class="card"/>
    <text x="24" y="32" class="label">cc-act</text>
    <text x="24" y="57" class="small">create or update PR</text>
  </g>
  <path class="line" d="M350 526 H445"/>
  <path class="line" d="M570 562 V605"/>
  <path class="line" d="M455 651 H360"/>

  <rect x="845" y="390" width="675" height="335" rx="18" class="lane"/>
  <text x="875" y="426" class="note">Hotfix bug path</text>
  <text x="875" y="455" class="muted">For regressions, broken behavior, crashes, and flaky failures</text>
  <g transform="translate(885 490)">
    <rect width="270" height="72" rx="14" class="card"/>
    <text x="24" y="32" class="label">cc-diagnose</text>
    <text x="24" y="57" class="small">repro, root cause, boundary</text>
  </g>
  <g transform="translate(1245 490)">
    <rect width="230" height="72" rx="14" class="card"/>
    <text x="24" y="32" class="label">cc-do</text>
    <text x="24" y="57" class="small">repair with evidence</text>
  </g>
  <g transform="translate(885 615)">
    <rect width="230" height="72" rx="14" class="card"/>
    <text x="24" y="32" class="label">cc-check</text>
    <text x="24" y="57" class="small">prove the symptom is fixed</text>
  </g>
  <g transform="translate(1245 615)">
    <rect width="230" height="72" rx="14" class="card"/>
    <text x="24" y="32" class="label">cc-act</text>
    <text x="24" y="57" class="small">create or update PR</text>
  </g>
  <path class="line" d="M1155 526 H1235"/>
  <path class="line" d="M1360 562 V605"/>
  <path class="line" d="M1245 651 H1125"/>

  <path class="thin" d="M1060 320 C950 360 830 365 685 410"/>
  <path class="thin" d="M1060 320 C1180 360 1230 365 1260 410"/>

  <rect x="250" y="790" width="1100" height="120" rx="22" fill="#101f2f" stroke="#3c5a78" stroke-width="2" filter="url(#shadow)"/>
  <g transform="translate(305 815)">
    <rect width="230" height="64" rx="14" fill="url(#violet)"/>
    <text x="24" y="30" class="label">cc-pr-review</text>
    <text x="24" y="52" class="small">separate PR review session</text>
  </g>
  <g transform="translate(690 815)">
    <rect width="230" height="64" rx="14" fill="url(#green)"/>
    <text x="24" y="30" class="label">cc-pr-land</text>
    <text x="24" y="52" class="small">rebase and land reviewed PR</text>
  </g>
  <g transform="translate(1075 815)">
    <rect width="220" height="64" rx="14" fill="url(#blue)"/>
    <text x="24" y="30" class="label">main</text>
    <text x="24" y="52" class="small">local and remote parity</text>
  </g>
  <path class="line" d="M535 847 H680"/>
  <path class="line" d="M920 847 H1065"/>
  <path class="thin" d="M805 815 C720 760 650 735 570 690"/>
  <path class="thin" d="M805 815 C920 760 1110 735 1360 690"/>

  <rect x="84" y="930" width="1432" height="42" rx="12" fill="#07111f" stroke="#27445f"/>
  <text x="110" y="957" class="small">Boundary: cc-dev never creates nested worktrees and never merges PRs. Review and landing are separate sessions by design.</text>
</svg>
