<svg xmlns="http://www.w3.org/2000/svg" width="1600" height="1000" viewBox="0 0 1600 1000" role="img" aria-labelledby="title desc">
  <title id="title">CC-DevFlow PR Harness 运作流程</title>
  <desc id="desc">一张中文流程图，展示 roadmap 选题、目标自动驾驶、PDCA 和 IDCA 循环、PR 独立 Review、PR 合并和 main 一致性证明。</desc>
  <defs>
    <linearGradient id="bg" x1="0" y1="0" x2="1" y2="1">
      <stop offset="0" stop-color="#07111f"/>
      <stop offset="0.48" stop-color="#0d2638"/>
      <stop offset="1" stop-color="#102414"/>
    </linearGradient>
    <linearGradient id="blue" x1="0" y1="0" x2="1" y2="1">
      <stop offset="0" stop-color="#4cc9f0"/>
      <stop offset="1" stop-color="#4361ee"/>
    </linearGradient>
    <linearGradient id="green" x1="0" y1="0" x2="1" y2="1">
      <stop offset="0" stop-color="#b8f05a"/>
      <stop offset="1" stop-color="#2fbf71"/>
    </linearGradient>
    <linearGradient id="amber" x1="0" y1="0" x2="1" y2="1">
      <stop offset="0" stop-color="#ffd166"/>
      <stop offset="1" stop-color="#ef8354"/>
    </linearGradient>
    <linearGradient id="violet" x1="0" y1="0" x2="1" y2="1">
      <stop offset="0" stop-color="#d0a2ff"/>
      <stop offset="1" stop-color="#7b2cbf"/>
    </linearGradient>
    <filter id="shadow" x="-20%" y="-20%" width="140%" height="140%">
      <feDropShadow dx="0" dy="16" stdDeviation="16" flood-color="#000000" flood-opacity="0.35"/>
    </filter>
    <marker id="arrow" markerWidth="16" markerHeight="16" refX="12" refY="8" orient="auto" markerUnits="strokeWidth">
      <path d="M2,2 L14,8 L2,14 Z" fill="#d7e3f4"/>
    </marker>
    <style>
      .title{font:800 62px Inter,"PingFang SC","Microsoft YaHei",Arial,sans-serif;fill:#f8fbff;letter-spacing:0}
      .subtitle{font:500 26px Inter,"PingFang SC","Microsoft YaHei",Arial,sans-serif;fill:#bdd0e8}
      .label{font:800 26px Inter,"PingFang SC","Microsoft YaHei",Arial,sans-serif;fill:#f8fbff;letter-spacing:0}
      .small{font:500 18px Inter,"PingFang SC","Microsoft YaHei",Arial,sans-serif;fill:#d7e3f4}
      .note{font:600 18px Inter,"PingFang SC","Microsoft YaHei",Arial,sans-serif;fill:#f8fbff}
      .muted{font:500 16px Inter,"PingFang SC","Microsoft YaHei",Arial,sans-serif;fill:#9fb4cd}
      .card{fill:#102033;stroke:#27445f;stroke-width:2;filter:url(#shadow)}
      .lane{fill:#0b1728;stroke:#27445f;stroke-width:2}
      .line{fill:none;stroke:#d7e3f4;stroke-width:4;marker-end:url(#arrow)}
      .thin{fill:none;stroke:#6c819b;stroke-width:3;stroke-dasharray:8 10;marker-end:url(#arrow)}
    </style>
  </defs>
  <rect width="1600" height="1000" fill="url(#bg)"/>
  <circle cx="140" cy="125" r="220" fill="#2247ff" opacity="0.12"/>
  <circle cx="1450" cy="820" r="260" fill="#2fbf71" opacity="0.13"/>

  <text x="80" y="96" class="title">CC-DevFlow PR Harness</text>
  <text x="84" y="136" class="subtitle">从 roadmap 选题，到当前 worktree 自动开发，再到独立 PR Review 和 main 一致性证明。</text>

  <rect x="80" y="190" width="1440" height="150" rx="18" class="lane"/>
  <text x="110" y="225" class="note">导航层</text>
  <g transform="translate(130 250)">
    <rect width="260" height="70" rx="16" fill="url(#blue)"/>
    <text x="24" y="32" class="label">cc-roadmap</text>
    <text x="24" y="56" class="small">产品顺序和阶段真相</text>
  </g>
  <g transform="translate(520 250)">
    <rect width="260" height="70" rx="16" fill="url(#green)"/>
    <text x="24" y="32" class="label">cc-next</text>
    <text x="24" y="56" class="small">选择一个 ready 目标</text>
  </g>
  <g transform="translate(910 250)">
    <rect width="300" height="70" rx="16" fill="url(#amber)"/>
    <text x="24" y="32" class="label">cc-dev</text>
    <text x="24" y="56" class="small">当前 worktree 推进到 PR</text>
  </g>
  <path class="line" d="M390 285 H510"/>
  <path class="line" d="M780 285 H900"/>

  <rect x="80" y="390" width="675" height="335" rx="18" class="lane"/>
  <text x="110" y="426" class="note">PDCA 新需求循环</text>
  <text x="110" y="455" class="muted">适用于新行为、接口、UI、规格和需求变更</text>
  <g transform="translate(120 490)">
    <rect width="230" height="72" rx="14" class="card"/>
    <text x="24" y="32" class="label">cc-plan</text>
    <text x="24" y="57" class="small">冻结范围、设计、任务</text>
  </g>
  <g transform="translate(455 490)">
    <rect width="230" height="72" rx="14" class="card"/>
    <text x="24" y="32" class="label">cc-do</text>
    <text x="24" y="57" class="small">红灯、绿灯、重构</text>
  </g>
  <g transform="translate(120 615)">
    <rect width="230" height="72" rx="14" class="card"/>
    <text x="24" y="32" class="label">cc-check</text>
    <text x="24" y="57" class="small">新鲜证据裁决</text>
  </g>
  <g transform="translate(455 615)">
    <rect width="230" height="72" rx="14" class="card"/>
    <text x="24" y="32" class="label">cc-act</text>
    <text x="24" y="57" class="small">创建或更新 PR</text>
  </g>
  <path class="line" d="M350 526 H445"/>
  <path class="line" d="M570 562 V605"/>
  <path class="line" d="M455 651 H360"/>

  <rect x="845" y="390" width="675" height="335" rx="18" class="lane"/>
  <text x="875" y="426" class="note">IDCA Bug 调查循环</text>
  <text x="875" y="455" class="muted">适用于回归、崩溃、错误行为和不稳定失败</text>
  <g transform="translate(885 490)">
    <rect width="270" height="72" rx="14" class="card"/>
    <text x="24" y="32" class="label">cc-investigate</text>
    <text x="24" y="57" class="small">复现、根因、修复边界</text>
  </g>
  <g transform="translate(1245 490)">
    <rect width="230" height="72" rx="14" class="card"/>
    <text x="24" y="32" class="label">cc-do</text>
    <text x="24" y="57" class="small">带证据修复</text>
  </g>
  <g transform="translate(885 615)">
    <rect width="230" height="72" rx="14" class="card"/>
    <text x="24" y="32" class="label">cc-check</text>
    <text x="24" y="57" class="small">证明症状已修复</text>
  </g>
  <g transform="translate(1245 615)">
    <rect width="230" height="72" rx="14" class="card"/>
    <text x="24" y="32" class="label">cc-act</text>
    <text x="24" y="57" class="small">创建或更新 PR</text>
  </g>
  <path class="line" d="M1155 526 H1235"/>
  <path class="line" d="M1360 562 V605"/>
  <path class="line" d="M1245 651 H1125"/>

  <path class="thin" d="M1060 320 C950 360 830 365 685 410"/>
  <path class="thin" d="M1060 320 C1180 360 1230 365 1260 410"/>

  <rect x="250" y="790" width="1100" height="120" rx="22" fill="#101f2f" stroke="#3c5a78" stroke-width="2" filter="url(#shadow)"/>
  <g transform="translate(305 815)">
    <rect width="230" height="64" rx="14" fill="url(#violet)"/>
    <text x="24" y="30" class="label">cc-pr-review</text>
    <text x="24" y="52" class="small">单独会话 Review PR</text>
  </g>
  <g transform="translate(690 815)">
    <rect width="230" height="64" rx="14" fill="url(#green)"/>
    <text x="24" y="30" class="label">cc-pr-land</text>
    <text x="24" y="52" class="small">Rebase 并合并 PR</text>
  </g>
  <g transform="translate(1075 815)">
    <rect width="220" height="64" rx="14" fill="url(#blue)"/>
    <text x="24" y="30" class="label">main</text>
    <text x="24" y="52" class="small">本地和远程一致</text>
  </g>
  <path class="line" d="M535 847 H680"/>
  <path class="line" d="M920 847 H1065"/>
  <path class="thin" d="M805 815 C720 760 650 735 570 690"/>
  <path class="thin" d="M805 815 C920 760 1110 735 1360 690"/>

  <rect x="84" y="930" width="1432" height="42" rx="12" fill="#07111f" stroke="#27445f"/>
  <text x="110" y="957" class="small">边界：cc-dev 不创建嵌套 worktree，也不合并 PR；Review 和 Landing 必须是独立会话。</text>
</svg>
